<svg xmlns="http://www.w3.org/2000/svg" viewBox="0 0 256 256">
  <rect width="256" height="256" rx="56" fill="#323D59"/>
  <g transform="translate(35 44) scale(0.8)" fill="#FFFFFF">
    <path d="M168.28 65.38H179.86V170.98H168.28Z"/>
    <path d="M106.53 65.38H118.12V147.66H106.53Z"/>
    <path d="M111.9 147.41L121.11 147.66L179.33 65.38L165.38 65.13L130.43 114.53C123.14 124.82 116.93 135.84 111.9 147.41Z"/>
    <path d="M118.12 65.39L15.1 189.19L0.0 189.19L103.02 65.39L118.12 65.39Z"/>
    <path d="M111.64 9.9C74.85 16.01 45.04 45.32 38.31 82.0C35.36 98.06 36.73 113.52 41.41 127.5L42.31 126.42C47.12 120.65 49.05 113.17 48.41 105.68C48.07 101.81 48.02 97.86 48.28 93.83C50.64 56.26 80.37 24.75 117.77 20.47C169.75 14.51 213.29 59.4 204.99 111.75C199.88 143.96 174.41 170.31 142.37 176.37C109.57 182.58 79.39 168.34 62.45 144.2C57.99 149.59 58.14 157.61 63.08 162.57C82.26 181.87 110.13 192.53 140.22 188.25C180.9 182.47 213.06 148.54 216.92 107.63C222.47 48.78 171.18 0.0 111.64 9.9Z"/>
  </g>
</svg>
